{
  "accessors": [
    {
      "bufferView": 2,
      "componentType": 5126,
      "count": 26124,
      "max": [
        0.68868798017501831,
        1.0835340023040771,
        1.0417189598083496
      ],
      "min": [
        -0.68868798017501831,
        -1.0835340023040771,
        -1.0417189598083496
      ],
      "type": "VEC3"
    },
    {
      "bufferView": 2,
      "byteOffset": 313488,
      "componentType": 5126,
      "count": 26124,
      "max": [
        0.99992626905441284,
        0.9999014139175415,
        0.99979645013809204
      ],
      "min": [
        -0.99998295307159424,
        -0.99938803911209106,
        -0.99994975328445435
      ],
      "type": "VEC3"
    },
    {
      "bufferView": 3,
      "componentType": 5126,
      "count": 26124,
      "max": [
        0.99992120265960693,
        0.99983429908752441,
        0.99998843669891357,
        1
      ],
      "min": [
        -0.99941122531890869,
        -0.99992305040359497,
        -0.999991774559021,
        -1
      ],
      "type": "VEC4"
    },
    {
      "bufferView": 1,
      "componentType": 5126,
      "count": 26124,
      "max": [
        0.99549597501754761,
        0.99761301279067993
      ],
      "min": [
        0,
        0
      ],
      "type": "VEC2"
    },
    {
      "bufferView": 0,
      "componentType": 5125,
      "count": 136914,
      "max": [
        26123
      ],
      "min": [
        0
      ],
      "type": "SCALAR"
    }
  ],
  "asset": {
    "extras": {
      "author": "Marissa Dudek (https://sketchfab.com/marissadudek)",
      "license": "CC-BY-NC-4.0 (http://creativecommons.org/licenses/by-nc/4.0/)",
      "source": "https://sketchfab.com/3d-models/owens-valley-meteorite-6166cd706c3a4595a4fa7081c1d9642d",
      "title": "Owens Valley Meteorite"
    },
    "generator": "Sketchfab-6.49.1",
    "version": "2.0"
  },
  "bufferViews": [
    {
      "buffer": 0,
      "byteLength": 547656,
      "byteOffset": 0,
      "name": "floatBufferViews",
      "target": 34963
    },
    {
      "buffer": 0,
      "byteLength": 208992,
      "byteOffset": 547656,
      "byteStride": 8,
      "name": "floatBufferViews",
      "target": 34962
    },
    {
      "buffer": 0,
      "byteLength": 626976,
      "byteOffset": 756648,
      "byteStride": 12,
      "name": "floatBufferViews",
      "target": 34962
    },
    {
      "buffer": 0,
      "byteLength": 417984,
      "byteOffset": 1383624,
      "byteStride": 16,
      "name": "floatBufferViews",
      "target": 34962
    }
  ],
  "buffers": [
    {
      "byteLength": 1801608,
      "uri": "scene.bin"
    }
  ],
  "images": [
    {
      "uri": "textures/model_baseColor.jpeg"
    }
  ],
  "materials": [
    {
      "doubleSided": true,
      "emissiveFactor": [
        0,
        0,
        0
      ],
      "name": "model",
      "pbrMetallicRoughness": {
        "baseColorFactor": [
          1,
          1,
          1,
          1
        ],
        "baseColorTexture": {
          "index": 0,
          "texCoord": 0
        },
        "metallicFactor": 0,
        "roughnessFactor": 0.59999999999999998
      }
    }
  ],
  "meshes": [
    {
      "primitives": [
        {
          "attributes": {
            "NORMAL": 1,
            "POSITION": 0,
            "TANGENT": 2,
            "TEXCOORD_0": 3
          },
          "indices": 4,
          "material": 0,
          "mode": 4
        }
      ]
    }
  ],
  "nodes": [
    {
      "children": [
        1
      ],
      "name": "RootNode (gltf orientation matrix)",
      "rotation": [
        -0.70710678118654746,
        -0,
        -0,
        0.70710678118654757
      ]
    },
    {
      "children": [
        2
      ],
      "matrix": [
        0.99456804990768433,
        -0.0090576270595192909,
        -0.10369372367858887,
        0,
        0.10288462042808533,
        -0.065535381436347961,
        0.99253207445144653,
        0,
        -0.015785593539476395,
        -0.99780911207199097,
        -0.064247503876686096,
        0,
        -4.5977387230777822e-07,
        3.2105469927046215e-06,
        -5.6535732255724724e-06,
        1
      ],
      "name": "RootNode (model correction matrix)"
    },
    {
      "children": [
        3
      ],
      "name": "model.obj.cleaner.materialmerger.gles"
    },
    {
      "mesh": 0,
      "name": ""
    }
  ],
  "samplers": [
    {
      "magFilter": 9729,
      "minFilter": 9987,
      "wrapS": 10497,
      "wrapT": 10497
    }
  ],
  "scene": 0,
  "scenes": [
    {
      "name": "OSG_Scene",
      "nodes": [
        0
      ]
    }
  ],
  "textures": [
    {
      "sampler": 0,
      "source": 0
    }
  ]
}

